<?xml version="1.0" encoding="iso-8859-1"?>
<!-- Generator: Adobe Illustrator 16.0.0, SVG Export Plug-In . SVG Version: 6.00 Build 0)  -->
<!DOCTYPE svg PUBLIC "-//W3C//DTD SVG 1.1//EN" "http://www.w3.org/Graphics/SVG/1.1/DTD/svg11.dtd">
<svg version="1.1" id="Layer_1" xmlns="http://www.w3.org/2000/svg" xmlns:xlink="http://www.w3.org/1999/xlink" x="0px" y="0px"
	 width="120px" height="120px" viewBox="0 0 120 120" style="enable-background:new 0 0 120 120;" xml:space="preserve">
<g>
	<path style="fill-rule:evenodd;clip-rule:evenodd;fill:none;stroke:#010101;stroke-width:3.1156;stroke-miterlimit:10;" d="
		M19.333,120.904c0,0,2.455-6.793,3.143-20.03c0.539-10.328-0.568-17.649-3.403-27.626c-3.541-12.442-5.198-21.54-5.237-26.707
		c-0.117-13.823,8.907-24.613,14.795-29.586c5.889-4.974,15.051-10.21,17.674-11.259c12.305,25.27,26.314,43.466,59.827,59.438
		c0.574,35.835-14.366,51.499-15.054,52.498c-0.684,1.012-26.578,2.749-41.895-13.486"/>
	<path style="fill-rule:evenodd;clip-rule:evenodd;fill:none;stroke:#010101;stroke-width:3.142;stroke-miterlimit:10;" d="
		M82.949,69.188c-0.006,0.002-11.003,3.004-15.719-0.229"/>
	<radialGradient id="SVGID_1_" cx="89.1016" cy="2.6519" r="22.2765" gradientUnits="userSpaceOnUse">
		<stop  offset="2.583500e-04" style="stop-color:#73C9B9"/>
		<stop  offset="0.0327" style="stop-color:#70C8B4"/>
		<stop  offset="0.0984" style="stop-color:#6EC7AF"/>
		<stop  offset="0.2811" style="stop-color:#6EC6AE"/>
		<stop  offset="0.3898" style="stop-color:#59ADA1"/>
		<stop  offset="0.5608" style="stop-color:#3E9394"/>
		<stop  offset="0.724" style="stop-color:#29828B"/>
		<stop  offset="0.8744" style="stop-color:#197885"/>
		<stop  offset="1" style="stop-color:#127583"/>
	</radialGradient>
	<path style="fill-rule:evenodd;clip-rule:evenodd;fill:url(#SVGID_1_);" d="M51.238,2.292c0,0,12.316-2.504,21.927-0.786
		c2.166,0.388,8.771,1.717,14.378,5.008c3.596,2.111,7.956,4.762,11.196,8.149c6.039,6.305,7.852,11.322,8.846,15.514
		c0.915,3.857,0.477,28.965,0.477,28.965L51.238,2.292z"/>
	<linearGradient id="SVGID_2_" gradientUnits="userSpaceOnUse" x1="89.707" y1="16.8374" x2="78.8511" y2="31.7785">
		<stop  offset="2.583500e-04" style="stop-color:#0D9796"/>
		<stop  offset="0.1808" style="stop-color:#157A7E"/>
		<stop  offset="0.4018" style="stop-color:#136069"/>
		<stop  offset="0.6165" style="stop-color:#104F5A"/>
		<stop  offset="0.8199" style="stop-color:#0C4552"/>
		<stop  offset="1" style="stop-color:#0B424F"/>
	</linearGradient>
	<path style="fill-rule:evenodd;clip-rule:evenodd;fill:url(#SVGID_2_);" d="M51.354,2.439c0,0,10.81-2.915,18.861,0.767
		c2.01,0.919,3.71,3.276,5.28,7.203c3.044,7.609,7.739,8.611,10.675,9.621c4.94,1.702,16.935,6.949,20.089,16.04
		c1.645,4.762,1.556,23.023,1.556,23.023L72.106,28.735L51.354,2.439z"/>
	<linearGradient id="SVGID_3_" gradientUnits="userSpaceOnUse" x1="83.9609" y1="26.4229" x2="75.3416" y2="35.434">
		<stop  offset="2.583500e-04" style="stop-color:#0D9796"/>
		<stop  offset="0.217" style="stop-color:#147F83"/>
		<stop  offset="0.7452" style="stop-color:#10525D"/>
		<stop  offset="1" style="stop-color:#0B424F"/>
	</linearGradient>
	<path style="fill-rule:evenodd;clip-rule:evenodd;fill:url(#SVGID_3_);" d="M51.472,2.341c0,0,10.174-2.083,16.388,5.499
		c5.062,6.186,2.826,12.06,5.413,16.97c3.553,6.712,9.146,8.215,12.567,9.295c6.146,1.942,12.544,2.505,16.757,7.593
		c5.774,6.971,5.465,13.924,5.465,17.445c0,3.142-31.01-17.821-38.272-27.407C67.218,28.351,51.472,2.341,51.472,2.341z"/>
</g>
</svg>
