<?xml version="1.0" standalone="no"?>
<!DOCTYPE svg PUBLIC "-//W3C//DTD SVG 20010904//EN"
 "http://www.w3.org/TR/2001/REC-SVG-20010904/DTD/svg10.dtd">
<svg version="1.0" xmlns="http://www.w3.org/2000/svg"
 width="16.000000pt" height="16.000000pt" viewBox="0 0 16.000000 16.000000"
 preserveAspectRatio="xMidYMid meet">
<metadata>
Created by potrace 1.11, written by Peter Selinger 2001-2013
</metadata>
<g transform="translate(0.000000,16.000000) scale(0.003101,-0.003101)"
fill="#000000" stroke="none">
<path d="M2430 5145 c-108 -15 -180 -32 -180 -43 0 -5 4 -12 9 -17 5 -6 42
-75 83 -155 218 -421 455 -772 670 -990 117 -118 145 -143 428 -384 14 -11 48
-39 75 -61 28 -22 59 -47 70 -57 236 -197 814 -625 949 -703 l49 -28 -7 494
c-10 660 -11 675 -57 830 -73 247 -185 413 -428 639 -35 33 -191 140 -286 197
-260 157 -449 220 -820 278 -84 13 -460 13 -555 0z"/>
<path d="M2010 5082 c-374 -173 -757 -432 -964 -653 -164 -174 -292 -366 -378
-569 -42 -97 -92 -258 -103 -327 -3 -21 -8 -50 -11 -63 -3 -14 -7 -92 -9 -175
-3 -161 5 -255 35 -420 5 -27 11 -63 14 -80 14 -90 98 -440 147 -615 58 -208
94 -353 110 -444 5 -33 12 -62 14 -65 1 -3 6 -31 9 -61 3 -30 8 -65 10 -77 8
-37 19 -232 20 -323 0 -121 -15 -395 -29 -500 -4 -30 -9 -68 -11 -83 -5 -43
-14 -100 -19 -127 -3 -14 -8 -41 -11 -60 -13 -77 -57 -237 -79 -292 -23 -57
-22 -68 10 -75 6 -1 53 -18 105 -37 70 -26 96 -32 102 -23 9 14 66 183 72 213
3 10 9 39 15 64 5 25 12 56 14 70 24 129 37 202 41 240 59 488 53 835 -19
1200 -9 41 -17 84 -19 95 -8 40 -48 193 -82 311 -19 67 -36 130 -38 140 -3 10
-15 62 -29 114 -46 178 -98 425 -122 586 -13 85 -12 330 1 404 43 246 159 490
329 700 124 152 273 283 480 421 106 71 337 211 341 206 1 -1 30 -56 64 -122
114 -219 246 -442 368 -620 61 -89 207 -284 247 -330 14 -16 52 -60 83 -97 31
-37 131 -140 222 -230 351 -347 779 -648 1291 -908 75 -38 139 -75 141 -82 3
-7 4 -35 2 -63 -1 -27 -5 -115 -8 -195 -3 -80 -8 -154 -10 -165 -2 -11 -7 -51
-11 -88 -3 -37 -8 -78 -11 -90 -2 -12 -6 -40 -9 -62 -12 -92 -39 -225 -76
-365 -16 -63 -31 -122 -33 -130 -8 -29 -64 -186 -93 -260 -71 -175 -165 -349
-264 -487 -68 -93 -47 -85 -219 -86 -85 0 -237 9 -275 17 -11 2 -45 7 -75 11
-90 11 -287 61 -400 100 -265 93 -465 218 -653 407 l-98 99 -90 -82 c-49 -44
-89 -84 -89 -88 0 -12 182 -192 250 -246 128 -103 277 -193 435 -263 130 -57
320 -120 415 -138 14 -2 31 -7 38 -9 7 -2 34 -7 60 -11 26 -3 50 -8 53 -10 3
-1 28 -6 55 -9 27 -3 58 -8 69 -10 85 -17 326 -24 451 -13 126 11 153 24 223
113 303 380 512 947 587 1585 3 30 8 69 10 85 2 17 7 163 10 325 l7 295 -189
95 c-104 51 -227 115 -273 142 -46 26 -85 48 -87 48 -4 0 -207 125 -286 176
-390 255 -768 597 -1016 920 -12 16 -43 56 -68 89 -164 214 -366 551 -545 913
-57 115 -85 162 -97 161 -9 0 -33 -8 -52 -17z"/>
<path d="M3460 2419 c-19 -4 -51 -11 -70 -14 -20 -3 -47 -8 -60 -11 -59 -13
-257 -12 -305 1 -27 7 -56 15 -64 17 -7 2 -39 -34 -72 -82 -89 -127 -87 -115
-23 -145 86 -41 180 -55 329 -50 72 2 146 7 165 10 19 3 44 8 55 10 71 11 146
29 149 34 2 3 -3 29 -11 56 -8 28 -14 80 -14 118 1 75 -1 76 -79 56z"/>
</g>
</svg>
